<svg xmlns="http://www.w3.org/2000/svg" xmlns:xlink="http://www.w3.org/1999/xlink" width="12px" height="18px" viewBox="0 0 12 18" version="1.1">    <!-- Generator: Sketch 63.1 (92452) - https://sketch.com -->    <title>Path</title>    <desc>Created with Sketch.</desc>    <g id="Page-1" stroke="none" stroke-width="1" fill="none" fill-rule="evenodd">        <g id="series-hd-novideo" transform="translate(-356.000000, -614.000000)" fill="#FFFFFF" fill-rule="nonzero">            <g id="Group-37" transform="translate(89.000000, 203.000000)">                <g id="Group-4-Copy">                    <g id="Group-3">                        <g id="Watchlist/32/Default-Copy-3" transform="translate(257.000000, 405.000000)">                            <g id="music-note" transform="translate(10.000000, 6.000000)">                                <path d="M10.46485,5.29404152 C9.1128,4.30855118 7.7256,3.09393023 6.7383,1.62113954 L5.874,0.331882083 C5.6909,0.0587452719 5.3496,-0.0628809142 5.03245,0.0317945798 C4.71605,0.127215942 4.5,0.417109917 4.5,0.745639848 L4.5,12.4480083 C4.057,12.1910816 3.54885,12.0331068 3,12.0331068 C1.34545,12.0331068 0,13.371144 0,15.0165783 C0,16.6620125 1.34545,18 3,18 C4.65455,18 6,16.6619628 6,15.0165286 L6,3.19462239 C7.0598,4.52684184 8.3855,5.62764335 9.5779,6.49732528 C10.1638,6.9241606 10.5,7.58266247 10.5,8.30371779 C10.5,9.53758213 9.4907,10.5413214 8.25,10.5413214 C7.83545,10.5413214 7.5,10.8749232 7.5,11.2871892 C7.5,11.6994553 7.83545,12.0330571 8.25,12.0330571 C10.31765,12.0330571 12,10.359976 12,8.30371779 C12,7.12007522 11.4265,5.99545566 10.46485,5.29404152 Z" id="Path"/>                            </g>                        </g>                    </g>                </g>            </g>        </g>    </g></svg>