<svg xmlns="http://www.w3.org/2000/svg" width="837.375" height="1068.417" viewBox="0 0 837.375 1068.417"><g transform="translate(0 -0.053)"><path d="M.24,223C6.45,376.13,131.6,498.42,285.11,498.53V222.79H.21Z" fill="#ffeeba"/><path d="M833.59,1054.12v14.35H548.47V780.68h.11C701.49,780.68,826.31,901.86,833.59,1054.12Z" fill="#ffeeba"/><rect width="6.2" height="6.2" transform="translate(788.645 375.365) rotate(-153.59)" fill="#ffeeba"/><rect width="6.2" height="6.2" transform="translate(771.94 357.368) rotate(-108.59)" fill="#ffeeba"/><rect width="6.2" height="6.2" transform="translate(829.007 409.291) rotate(-108.59)" fill="#ffeeba"/><rect width="12.74" height="12.74" transform="matrix(0.817, -0.577, 0.577, 0.817, 578.546, 370.464)" fill="#ffeeba"/><rect width="12.796" height="12.796" transform="matrix(0.816, -0.577, 0.577, 0.816, 570.612, 386.67)" fill="#ffeeba"/><rect width="12.74" height="12.74" transform="translate(609.601 346.466) rotate(8.6)" fill="#ffeeba"/><rect width="12.74" height="12.74" transform="translate(561.464 359.522) rotate(-75.71)" fill="#ffeeba"/><rect width="6.2" height="6.2" transform="translate(604.516 362.273) rotate(-153.59)" fill="#ffeeba"/><rect width="6.2" height="6.2" transform="translate(627.806 369.432) rotate(-153.59)" fill="#ffeeba"/><rect width="6.2" height="6.2" transform="translate(611.66 339.351) rotate(-153.59)" fill="#ffeeba"/><rect width="6.2" height="6.2" transform="translate(587.828 344.28) rotate(-108.59)" fill="#ffeeba"/><rect width="12.74" height="12.74" transform="matrix(0.817, -0.577, 0.577, 0.817, 638.06, 326.982)" fill="#ffeeba"/><rect width="12.74" height="12.74" transform="translate(626.443 313.028) rotate(-75.71)" fill="#ffeeba"/><rect width="6.2" height="6.2" transform="translate(664.035 318.79) rotate(-153.59)" fill="#ffeeba"/><rect width="6.2" height="6.2" transform="translate(639.467 295.573) rotate(-108.59)" fill="#ffeeba"/><rect width="6.2" height="6.2" transform="translate(628.381 352.476) rotate(-108.59)" fill="#ffeeba"/><rect width="12.74" height="12.74" transform="translate(602.979 309.822) rotate(-60)" fill="#ffeeba"/><rect width="12.74" height="12.74" transform="matrix(0.817, -0.577, 0.577, 0.817, 743.802, 357.322)" fill="#ffeeba"/><rect width="12.74" height="12.74" transform="translate(732.174 343.378) rotate(-75.71)" fill="#ffeeba"/><rect width="6.2" height="6.2" transform="translate(753.081 331.146) rotate(-108.59)" fill="#ffeeba"/><rect width="12.74" height="12.74" transform="translate(716.449 348.324) rotate(-119.9)" fill="#ffeeba"/><rect width="12.74" height="12.74" transform="matrix(0.817, -0.577, 0.577, 0.817, 749.376, 307.417)" fill="#ffeeba"/><rect width="12.74" height="12.74" transform="translate(773.818 314.421) rotate(-60)" fill="#ffeeba"/><rect width="12.74" height="12.74" transform="translate(781.23 278.199) rotate(8.6)" fill="#ffeeba"/><rect width="12.74" height="12.74" transform="translate(737.756 293.472) rotate(-75.71)" fill="#ffeeba"/><rect width="6.2" height="6.2" transform="translate(775.373 299.235) rotate(-153.59)" fill="#ffeeba"/><rect width="6.2" height="6.2" transform="translate(773.61 272.793) rotate(-153.59)" fill="#ffeeba"/><rect width="6.2" height="6.2" transform="translate(758.663 281.238) rotate(-108.59)" fill="#ffeeba"/><rect width="12.74" height="12.74" transform="translate(773.816 244.341) rotate(-60)" fill="#ffeeba"/><rect width="6.2" height="6.2" transform="translate(771.862 337.094) rotate(-153.59)" fill="#ffeeba"/><rect width="6.2" height="6.2" transform="translate(814.705 414.246) rotate(-153.59)" fill="#ffeeba"/><rect width="12.74" height="12.74" transform="matrix(-0.817, -0.577, 0.577, -0.817, 707.894, 313.543)" fill="#ffeeba"/><rect width="12.74" height="12.74" transform="matrix(-0.909, 0.417, -0.417, -0.909, 711.713, 359.617)" fill="#ffeeba"/><rect width="12.74" height="12.74" transform="matrix(-0.909, 0.417, -0.417, -0.909, 695.12, 381.406)" fill="#ffeeba"/><rect width="12.74" height="12.74" transform="translate(685.302 286.502) rotate(171.4)" fill="#ffeeba"/><rect width="12.74" height="12.74" transform="translate(714.489 292.338) rotate(-104.29)" fill="#ffeeba"/><rect width="6.2" height="6.2" transform="translate(686.409 289.381) rotate(-26.41)" fill="#ffeeba"/><rect width="6.2" height="6.2" transform="translate(676.2 308.58) rotate(-26.41)" fill="#ffeeba"/><rect width="6.2" height="6.2" transform="translate(655.441 351.883) rotate(-26.41)" fill="#ffeeba"/><rect width="6.2" height="6.2" transform="translate(700.027 275.003) rotate(-71.41)" fill="#ffeeba"/><rect width="12.74" height="12.74" transform="translate(731.852 374.118) rotate(-75.71)" fill="#ffeeba"/><rect width="12.74" height="12.74" transform="matrix(0.817, -0.577, 0.577, 0.817, 539.494, 308.742)" fill="#ffeeba"/><rect width="12.74" height="12.74" transform="translate(563.921 315.741) rotate(-60)" fill="#ffeeba"/><rect width="12.74" height="12.74" transform="translate(571.333 279.518) rotate(8.6)" fill="#ffeeba"/><rect width="12.74" height="12.74" transform="translate(604.99 289.052) rotate(8.6)" fill="#ffeeba"/><rect width="6.2" height="6.2" transform="translate(565.484 300.529) rotate(-153.59)" fill="#ffeeba"/><rect width="6.2" height="6.2" transform="translate(588.769 307.698) rotate(-153.59)" fill="#ffeeba"/><rect width="6.2" height="6.2" transform="translate(572.466 272.783) rotate(-153.59)" fill="#ffeeba"/><rect width="6.2" height="6.2" transform="translate(548.788 282.545) rotate(-108.59)" fill="#ffeeba"/><rect width="12.74" height="12.74" transform="translate(583.979 178.287) rotate(8.6)" fill="#ffeeba"/><rect width="6.2" height="6.2" transform="translate(579.828 215.747) rotate(-153.59)" fill="#ffeeba"/><rect width="6.2" height="6.2" transform="translate(564.806 211.627) rotate(-153.59)" fill="#ffeeba"/><rect width="6.2" height="6.2" transform="translate(593.18 167.307) rotate(-153.59)" fill="#ffeeba"/><rect width="6.2" height="6.2" transform="translate(660.963 96.885) rotate(-153.59)" fill="#ffeeba"/><rect width="6.2" height="6.2" transform="translate(561.439 163.287) rotate(-108.59)" fill="#ffeeba"/><rect width="12.74" height="12.74" transform="matrix(0.817, -0.577, 0.577, 0.817, 629.641, 158.44)" fill="#ffeeba"/><rect width="12.74" height="12.74" transform="translate(654.083 165.436) rotate(-60)" fill="#ffeeba"/><rect width="6.2" height="6.2" transform="translate(655.658 150.239) rotate(-153.59)" fill="#ffeeba"/><rect width="6.2" height="6.2" transform="translate(623.607 143.03) rotate(-108.59)" fill="#ffeeba"/><rect width="12.74" height="12.74" transform="matrix(0.817, -0.577, 0.577, 0.817, 599.018, 265.251)" fill="#ffeeba"/><rect width="12.74" height="12.74" transform="translate(623.447 272.249) rotate(-60)" fill="#ffeeba"/><rect width="12.74" height="12.74" transform="translate(652.709 289.146) rotate(-60)" fill="#ffeeba"/><rect width="12.74" height="12.74" transform="translate(630.846 236.037) rotate(8.6)" fill="#ffeeba"/><rect width="12.74" height="12.74" transform="translate(587.395 251.29) rotate(-75.71)" fill="#ffeeba"/><rect width="6.2" height="6.2" transform="translate(625.002 257.046) rotate(-153.59)" fill="#ffeeba"/><rect width="6.2" height="6.2" transform="translate(648.288 264.215) rotate(-153.59)" fill="#ffeeba"/><rect width="6.2" height="6.2" transform="translate(683.829 273.761) rotate(-111.73)" fill="#ffeeba"/><rect width="6.2" height="6.2" transform="translate(608.303 239.065) rotate(-108.59)" fill="#ffeeba"/><rect width="6.215" height="6.215" transform="matrix(-0.319, -0.948, 0.948, -0.319, 586.015, 127.405)" fill="#ffeeba"/><rect width="6.2" height="6.2" transform="translate(589.331 290.74) rotate(-108.59)" fill="#ffeeba"/><rect width="12.74" height="12.74" transform="translate(563.93 245.661) rotate(-60)" fill="#ffeeba"/><rect width="12.74" height="12.74" transform="translate(694.51 239.112) rotate(8.6)" fill="#ffeeba"/><rect width="12.74" height="12.74" transform="translate(666.685 336.982) rotate(-75.71)" fill="#ffeeba"/><rect width="12.74" height="12.74" transform="translate(617.748 334.299) rotate(-75.71)" fill="#ffeeba"/><rect width="12.74" height="12.74" transform="translate(639.188 312.065) rotate(-75.71)" fill="#ffeeba"/><rect width="12.74" height="12.74" transform="translate(660.23 316.403) rotate(-75.71)" fill="#ffeeba"/><rect width="6.2" height="6.2" transform="translate(561.977 338.402) rotate(-153.59)" fill="#ffeeba"/><rect width="12.74" height="12.74" transform="translate(632.771 349.069) rotate(-60)" fill="#ffeeba"/><rect width="12.74" height="12.74" transform="translate(659.14 361.939) rotate(48.71)" fill="#ffeeba"/><rect width="12.74" height="12.74" transform="matrix(0.914, 0.406, -0.406, 0.914, 636.611, 359.02)" fill="#ffeeba"/><rect width="12.74" height="12.74" transform="translate(629.818 382.738) rotate(-24.23)" fill="#ffeeba"/><rect width="12.74" height="12.74" transform="translate(573.162 332.227) rotate(8.6)" fill="#ffeeba"/><rect width="6.2" height="6.2" transform="translate(592.582 362.957) rotate(-153.59)" fill="#ffeeba"/><rect width="6.2" height="6.2" transform="translate(570.623 380.922) rotate(-108.59)" fill="#ffeeba"/><rect width="6.2" height="6.2" transform="matrix(0.817, -0.577, 0.577, 0.817, 549.064, 381.181)" fill="#ffeeba"/><rect width="6.2" height="6.2" transform="translate(609.451 380.919) rotate(-108.59)" fill="#ffeeba"/><rect width="12.74" height="12.74" transform="translate(543.072 342.779) rotate(8.6)" fill="#ffeeba"/><rect width="12.74" height="12.74" transform="matrix(0.817, -0.577, 0.577, 0.817, 808.57, 341.351)" fill="#ffeeba"/><rect width="12.74" height="12.74" transform="matrix(0.817, -0.577, 0.577, 0.817, 788.203, 360.641)" fill="#ffeeba"/><rect width="12.74" height="12.74" transform="matrix(0.817, -0.577, 0.577, 0.817, 819.617, 373.65)" fill="#ffeeba"/><rect width="12.796" height="12.796" transform="matrix(0.816, -0.577, 0.577, 0.816, 798.225, 386.957)" fill="#ffeeba"/><rect width="6.2" height="6.2" transform="translate(604.445 329.337) rotate(-153.59)" fill="#ffeeba"/><rect width="12.74" height="12.74" transform="translate(592.383 214.569) rotate(-75.71)" fill="#ffeeba"/><rect width="12.74" height="12.74" transform="translate(645.054 216.555) rotate(-60)" fill="#ffeeba"/><rect width="12.74" height="12.74" transform="translate(654.281 233.034) rotate(8.6)" fill="#ffeeba"/><rect width="6.2" height="6.2" transform="translate(685.573 230.159) rotate(-153.59)" fill="#ffeeba"/><rect width="6.2" height="6.2" transform="matrix(-0.98, -0.2, 0.2, -0.98, 702.893, 400.601)" fill="#ffeeba"/><rect width="6.2" height="6.2" transform="matrix(-0.909, 0.417, -0.417, -0.909, 698.184, 427.027)" fill="#ffeeba"/><rect width="6.2" height="6.2" transform="matrix(-0.909, 0.417, -0.417, -0.909, 692.562, 395.41)" fill="#ffeeba"/><rect width="12.74" height="12.74" transform="translate(793.159 296.267) rotate(-60)" fill="#ffeeba"/><rect width="12.74" height="12.74" transform="matrix(0.817, -0.577, 0.577, 0.817, 736.385, 175.592)" fill="#ffeeba"/><rect width="12.74" height="12.74" transform="matrix(0.817, -0.577, 0.577, 0.817, 709.119, 111.63)" fill="#ffeeba"/><rect width="12.74" height="12.74" transform="translate(768.23 146.368) rotate(8.6)" fill="#ffeeba"/><rect width="12.74" height="12.74" transform="translate(766.935 81.821) rotate(8.6)" fill="#ffeeba"/><rect width="12.74" height="12.74" transform="translate(801.549 144.729) rotate(8.6)" fill="#ffeeba"/><rect width="12.74" height="12.74" transform="translate(724.758 161.64) rotate(-75.71)" fill="#ffeeba"/><rect width="12.74" height="12.74" transform="translate(679.182 152.69) rotate(-75.71)" fill="#ffeeba"/><rect width="6.2" height="6.2" transform="translate(762.381 167.403) rotate(-153.59)" fill="#ffeeba"/><rect width="6.2" height="6.2" transform="translate(691.939 127.437) rotate(-153.59)" fill="#ffeeba"/><rect width="6.2" height="6.2" transform="translate(713.1 8.364) rotate(-153.59)" fill="#ffeeba"/><rect width="6.2" height="6.2" transform="translate(783.431 342.322) rotate(-153.59)" fill="#ffeeba"/><rect width="12.74" height="12.74" transform="matrix(0.817, -0.577, 0.577, 0.817, 669.698, 235.661)" fill="#ffeeba"/><rect width="12.74" height="12.74" transform="translate(692.953 169.687) rotate(-60)" fill="#ffeeba"/><rect width="12.74" height="12.74" transform="translate(633.56 47.025) rotate(-60)" fill="#ffeeba"/><rect width="12.74" height="12.74" transform="translate(794.618 336.121) rotate(8.6)" fill="#ffeeba"/><rect width="12.74" height="12.74" transform="translate(803.953 241.026) rotate(8.6)" fill="#ffeeba"/><rect width="12.74" height="12.74" transform="translate(610.174 193.553) rotate(-75.71)" fill="#ffeeba"/><rect width="6.2" height="6.2" transform="translate(647.783 199.307) rotate(-153.59)" fill="#ffeeba"/><rect width="6.2" height="6.2" transform="translate(671.073 206.476) rotate(-153.59)" fill="#ffeeba"/><rect width="6.2" height="6.2" transform="translate(822.965 367.27) rotate(-153.59)" fill="#ffeeba"/><rect width="6.2" height="6.2" transform="translate(709.988 385.287) rotate(-153.59)" fill="#ffeeba"/><rect width="6.2" height="6.2" transform="translate(631.084 181.32) rotate(-108.59)" fill="#ffeeba"/><rect width="6.2" height="6.2" transform="translate(671.637 189.516) rotate(-108.59)" fill="#ffeeba"/><rect width="6.2" height="6.2" transform="translate(644.281 237.17) rotate(-153.59)" fill="#ffeeba"/><rect width="6.2" height="6.2" transform="translate(825.894 333.267) rotate(-153.59)" fill="#ffeeba"/><rect width="6.2" height="6.2" transform="translate(723.16 224.486) rotate(-153.59)" fill="#ffeeba"/><rect width="6.2" height="6.2" transform="translate(785.68 174.573) rotate(-153.59)" fill="#ffeeba"/><rect width="6.2" height="6.2" transform="translate(782.164 195.029) rotate(-153.59)" fill="#ffeeba"/><rect width="6.2" height="6.2" transform="translate(745.667 149.416) rotate(-108.59)" fill="#ffeeba"/><rect width="6.2" height="6.2" transform="translate(685.976 65.071) rotate(-108.59)" fill="#ffeeba"/><rect width="12.74" height="12.74" transform="translate(752.717 245.549) rotate(-47.58)" fill="#ffeeba"/><rect width="12.74" height="12.74" transform="translate(780.123 263.728) rotate(-47.58)" fill="#ffeeba"/><rect width="12.74" height="12.74" transform="translate(802.493 183.083) rotate(-3.72)" fill="#ffeeba"/><rect width="12.74" height="12.74" transform="translate(746.184 228.439) rotate(-88.282)" fill="#ffeeba"/><rect width="12.74" height="12.74" transform="matrix(0.034, -0.999, 0.999, 0.034, 702.755, 230.77)" fill="#ffeeba"/><rect width="12.74" height="12.74" transform="matrix(0.034, -0.999, 0.999, 0.034, 710.073, 199.287)" fill="#ffeeba"/><rect width="6.2" height="6.2" transform="translate(787.27 227.295) rotate(-165.91)" fill="#ffeeba"/><rect width="12.74" height="12.74" transform="translate(711.281 313.96) rotate(-47.58)" fill="#ffeeba"/><rect width="12.74" height="12.74" transform="matrix(0.304, -0.953, 0.953, 0.304, 722.926, 262.424)" fill="#ffeeba"/><rect width="6.2" height="6.2" transform="translate(706.407 284.976) rotate(-165.91)" fill="#ffeeba"/><rect width="6.2" height="6.2" transform="translate(663.438 273.644) rotate(-165.91)" fill="#ffeeba"/><rect width="6.2" height="6.2" transform="translate(703.372 268.346) rotate(-120.91)" fill="#ffeeba"/><rect width="6.2" height="6.2" transform="translate(687.426 218.96) rotate(-165.91)" fill="#ffeeba"/><rect width="6.2" height="6.2" transform="translate(761.142 291.444) rotate(-165.91)" fill="#ffeeba"/><rect width="6.2" height="6.2" transform="translate(811.545 229.323) rotate(-165.91)" fill="#ffeeba"/><rect width="6.2" height="6.2" transform="translate(817.893 274.777) rotate(-165.91)" fill="#ffeeba"/><rect width="12.74" height="12.74" transform="translate(742.921 393.41) rotate(-71.73)" fill="#ffeeba"/><rect width="12.74" height="12.74" transform="matrix(0.999, -0.054, 0.054, 0.999, 771.745, 384.147)" fill="#ffeeba"/><rect width="12.74" height="12.74" transform="translate(753.027 411.1) rotate(-59.31)" fill="#ffeeba"/><rect width="6.2" height="6.2" transform="translate(776.827 371.101) rotate(-177.64)" fill="#ffeeba"/><rect width="6.2" height="6.2" transform="translate(672.185 382.68) rotate(-177.64)" fill="#ffeeba"/><rect width="6.2" height="6.2" transform="translate(792.28 414.321) rotate(-177.64)" fill="#ffeeba"/><rect width="6.2" height="6.2" transform="translate(770.383 212.565) rotate(-120.669)" fill="#ffeeba"/><rect width="12.718" height="12.718" transform="translate(803.775 315.163) rotate(-47.842)" fill="#ffeeba"/><rect width="12.74" height="12.74" transform="matrix(-0.497, 0.868, -0.868, -0.497, 702.18, 330.054)" fill="#ffeeba"/><rect width="12.74" height="12.74" transform="translate(674.704 369.228) rotate(-95.96)" fill="#ffeeba"/><rect width="12.74" height="12.74" transform="translate(663.594 401.117) rotate(-95.96)" fill="#ffeeba"/><rect width="12.74" height="12.74" transform="translate(679.695 419.037) rotate(-135)" fill="#ffeeba"/><rect width="6.2" height="6.2" transform="matrix(-0.205, 0.979, -0.979, -0.205, 659.11, 383.982)" fill="#ffeeba"/><rect width="12.74" height="12.74" transform="matrix(-0.764, -0.645, 0.645, -0.764, 650.274, 414.341)" fill="#ffeeba"/><rect width="12.74" height="12.74" transform="matrix(-0.764, -0.645, 0.645, -0.764, 671.863, 443.163)" fill="#ffeeba"/><rect width="12.74" height="12.74" transform="translate(717.183 382.236) rotate(-95.96)" fill="#ffeeba"/><rect width="6.2" height="6.2" transform="matrix(-0.205, 0.979, -0.979, -0.205, 619.365, 406.636)" fill="#ffeeba"/><rect width="6.2" height="6.2" transform="translate(613.761 391.69) rotate(75.91)" fill="#ffeeba"/><rect width="6.2" height="6.2" transform="matrix(-0.205, 0.979, -0.979, -0.205, 585.221, 369.432)" fill="#ffeeba"/><rect width="6.2" height="6.2" transform="matrix(-0.205, 0.979, -0.979, -0.205, 625.439, 394.547)" fill="#ffeeba"/><rect width="6.2" height="6.2" transform="translate(764.042 374.071) rotate(29.63)" fill="#ffeeba"/><rect width="6.2" height="6.2" transform="translate(604.474 364.485) rotate(-26.41)" fill="#ffeeba"/><rect width="6.215" height="6.215" transform="matrix(0.319, -0.948, 0.948, 0.319, 617.89, 375.637)" fill="#ffeeba"/><rect width="6.2" height="6.2" transform="translate(809.206 373.217) rotate(-26.41)" fill="#ffeeba"/><rect width="6.2" height="6.2" transform="translate(628.6 408.698) rotate(-26.41)" fill="#ffeeba"/><rect width="12.74" height="12.74" transform="translate(755.949 349.487) rotate(-120)" fill="#ffeeba"/><rect width="6.2" height="6.2" transform="translate(729.811 355.924) rotate(-26.41)" fill="#ffeeba"/><rect width="12.74" height="12.74" transform="translate(591.352 369.514) rotate(-132.42)" fill="#ffeeba"/><rect width="6.2" height="6.2" transform="translate(714.263 377.16) rotate(-14.09)" fill="#ffeeba"/><path d="M763.42,388.69l-.07-.46,2.34-.35-2.38-3.38-.43,1.69-.97-.25-.34,2.28Z" fill="#ffeeba"/><path d="M786.25,384.19l.79-2.37h-4.16Z" fill="#ffeeba"/><path d="M826.49,396.47l5.13-1.73,1.92,5.72h0v-10.3l-4.51,3.19-5.81-8.21-.84,5.55-3.9-.59,2.41,4.86-5.56,2.76-2.76-5.56,4.56-2.26-4.58-.69L811.13,399l-12.59-2,.17-1.12-.58,1-11-6.37,2-3.4-2.7-.91L780,395.29l-3-2.03.86,5.66-2.67.4,2.77,1.6-1.08,1.87,1.06,1.84-3.18,1.84L771.59,412l-3.17-1.83-.46.27.77,1.09,9.17,2.33-1.48,5.8,2.81-1.39,2.76,5.56-5.56,2.76-1.17-2.36-.5,2-1.41-.36,1.57,3.15-5.56,2.76-2.76-5.56,2.76-1.37-5.93-1.51-1.31.92-7.35-10.4,9-6.36-3.21-1.85,1.61-2.79-.87-1.5-5.3-1.42,1.21-4.76-9.35-1.41.89-5.91-4.07,2.88-2.31-3.27L739.63,393l-5.56-2.76,2.76-5.56,5.44,2.7-3.91-5.54h-1.17l-3,1-.34-1h-6.4l-.39,2.58,1.15,2-11,6.37-1.33-2.31-2.69,5.41-5.56-2.76,2.76-5.56,5.33,2.65-4.83-8.37h-2.05l-.14.91,2.15.86-2.3,5.76-3-1.21-1,3.72,4.1,7.1-8.11,4.68,4.27,2.12-2.76,5.56-1.74-.87-.31,8.95.15-.19,9.94,8-3.19,4-1.62,10.7-12.6-1.91.5-3.32-1.61-.54.66-2h-3.16v2.71l-12.74-.06v-7.84l-3.44,1.16,2.06,1.71-4,4.78-.59-.49-1.49.86,3.23,2.27-2.81,4,5.23,1.67.41-3.5,9.73,1.15,1.26-2.54,5.56,2.76-2.76,5.56-1.68-.84-1,8.06-9.31-1.1,3.69,5.22L670,467l-1.19-1.68-9.24,6.16-7.07-10.6,9.76-6.51-1.53-.49,2.59-8.14-12.29-3.13,3.15-12.35.61.16v-.07l11-6.37,3.07,5.32,1.21-1.46,1.48,1.23L670,424.45l1-.33-.45-2.6,6.11-1.06.62,3.56h2.61l7.24-5.12.36-10.41,9.39.32-.52-.26,1.8-3.63-.69.4-3-5.23-10.8,7.64-.63-.89-4.41,7.75-10.17-5.79-.05.2-1-.24,2.18,2.39-9.41,8.59-6.53-7.15-.34,10.05-12.73-.44.39-11.33-.47.43-3.42-3.74-1.48,5.35-8.32-2.3-3.17,4.49-10.4-7.35.47-.66h-9.16L605,395.9l-1.49-.74-2.46,4.94-5.56-2.76,2.76-5.56,5.41,2.69.42-.85-1.37-2.76,4.13-2-1.06-7h-5.13l.95,6.27-1.92.29,1,1.51-5.19,3.39-2.54-3.89-.88.13a5.9,5.9,0,0,1-1,1.87l.16.62-1.1.28a5.48,5.48,0,0,1-2.47,1l.13.23-2.25,1.3v1.1h-1.92l-6.87,4-.37-.65-2.64,10.36L567.45,408l6.58,7.2-9.41,8.59-8.62-9.4,8-7.27-2.62-.67,3-11.95-4.38-.92,1.27-6.07,6.07,1.27-1.2,5.74,8.75,2.23-.46-.79h-1.68V393l-2.41-4.17,2.38-1.38V383.2h4.84a5.639,5.639,0,0,1,.95-1.39H566.75l-.66,3.14-4.68-1-1.06,4.15-3.92-1,1.08,1.87-7.3,4.21,5.05,2.92-6.37,11-.43-.25v15l.74.37-.74,1.49v11.38l9.37,1.42-1.91,12.6-7.46-1.13v14.21l6.8,3.92-6.37,11-.43-.25v10.61l11.19,1.69-1.91,12.6-9.28-1.41v21.9H285.31C132.92,522.42,8.49,403.49.48,252a.85.85,0,0,1-.12-.5.87.87,0,0,1-.08-.43.78.78,0,0,1-.06-.37.82.82,0,0,1-.2-.61H0v818.35H285.11V756.77H548.58c152.91,0,277.72,121.18,285,273.44V512.52l-1.95-1,1.95-3.92V460.86l-5,3.54L821.23,454l10.4-7.35,2,2.77v-14.3l-1.11,4.36-12.35-3.15.39-1.52-1.62.81L816.13,430l5.56-2.76.49,1,1.1-4.3,10.31,2.63v-6.29l-4.16-2.07,1.87-3.77-4.73-3.35-3.54,2.5-2-2.89-1.9,7.3-7.53-1.92-5.6,3.27-6.37-11,4.65-2.68-2.37-.8,2-5.88,5.88,2-.64,1.9,1.54-.89.5.87,5.19,1.32-.64-.9,10.4-7.35ZM780.63,408.6l1.91-12.6,10.37,1.57,2-1,2.76,5.56-3.42,1.7-1,6.67-6.28-1-3.6,1.21-.62-1.85Zm19.64,77.25-10.4,7.35-7.35-10.4,10.4-7.35Zm-.6-30.86,2.76-5.56L808,452.2l-2.76,5.56ZM803,489.71l11,6.37-6.37,11-11-6.37Zm-61.24,45.43-3.15,12.35-12.35-3.15,2.12-8.32-2.23-1.27,6.3-11.07,11.07,6.3-2.79,4.9ZM711.61,582l.44-12.73,12.73.44-.44,12.73Zm5.85,19.2L717,613.92l-12.73-.44.44-12.73Zm-36.87-63.6-3.13-12.35,6.21-1.57.16-.64,1.17.3,4.81-1.22.66,2.61,5.71,1.45-2,7.68,3.37,2.39-7.37,10.39-10.39-7.37,1.29-1.81ZM669.8,580.8l5.56,2.76-2.76,5.56-5.6-2.76Zm-7.21-63,2.76-5.56L670.9,515l-2.76,5.56Zm10.58,54.38-2-5.88,5.88-2,2,5.88Zm21.39-66,1.13-4.43.16-3.83h.8l1-4.12,12.4,3.2-3.15,12.35Zm9.48,23,6.2.27-.27,6.2-6.2-.27Zm2.75-17.37,4.57-4.2,4.2,4.57-4.57,4.2ZM703.72,493l-3.13-12.35,12.35-3.13,3.13,12.35Zm30.06-17.27-6.37,11-11-6.37,6.37-11Zm-2.27-23.35,4.57-4.2,4.2,4.57L735.7,457Zm7.91,46.08-3.15,12.35-12.35-3.15,1.55-6.08-4.58-5.67,9.91-8,8,9.91-.47.38Zm-14.5-38.68-6.2-.27.27-6.2,6.2.27Zm-4.08,5.08L717.26,470l-5.07-3.57,3.57-5.07Zm-.55,51.74,4.2,4.57-4.57,4.2-4.2-4.57Zm1.61,82.19,5.56,2.76-2.76,5.56-5.56-2.76Zm12.57-122.92,6.3-11.07,11.07,6.3-6.3,11.07Zm18.73-13.16-5.76,2.3-2.3-5.76,3.38-1.35-3.55-7.1,11.4-5.69,5.69,11.4-9.46,4.72Zm-2.72,48.37,11.4-5.69,1.92,3.85,8.41-5.95,7.35,10.4-10.4,7.35-2.64-3.74-10.35,5.17Zm2.62,19-5.88,2-2-5.88,5.88-2Zm28.54,24.33,2.76-5.56,5.56,2.76-2.76,5.56Zm4.8,17.66-2.76,5.56-5.56-2.76,2.76-5.56Zm-6.06-28.5-12.6-1.91,1.91-12.6,12.6,1.91Zm-6.47,49.26-5.32,3.19-3.19-5.32,5.32-3.19ZM767.36,528l-4.57,4.2-4.2-4.57,4.57-4.2Zm-6.26,13.73,5.56,2.76L763.9,550l-5.56-2.76Zm12.56,72.55,9.41,8.59-8.59,9.41-9.41-8.59Zm9-5.75,1.51-6,6,1.51-1.51,6ZM775,463.44l1.91-12.6,12.6,1.91-1.91,12.6Zm8.8-33.38-.11-.05,2.76-5.56,5.56,2.76-2.76,5.56-4.1-2,6.59,9.32-10.4,7.35L774,437Zm-9.13,36.09,5.07,3.57-3.57,5.07-5.07-3.57Zm-.4,14.54-6.37,11-5.47-3.16-9,7.28-8-9.91,9.91-8,3.4,4.21,4.51-7.82ZM760.74,429l3.15,12.35-12.35,3.15-.35-1.39-9.27-1.4,1.91-12.6,10.36,1.57Zm-17-10.38,2.76-5.56,5.56,2.76-2.76,5.56ZM729.6,390.18l5.88,2-.46,1.37,1.34.67-2.76,5.56L728,397l.34-.67-.76-.25ZM735.3,406l-.78-3,4.61-1.17-.17-.68L751.31,398l3.15,12.35-4.61,1.17.17.68-7.58,1.93,1,2.08L737.67,419l1.21,2.43,4,2.79-1.5,2.12,1.67,3.33-6.22,3.11-1.3,1.84-1-.7-2.89,1.44-.29-.58-1,2.09-1.29-.64-.39,2.57L716,436.95l1.91-12.6,8.37,1.27.25-.35-.62-1.24,2.32-1.16,2.54-3.6-4.4-8.81Zm-27,10.8-3.15-12.35,6.45-1.64,3.47-6,11,6.37-4.7,8.14,1,1.92L716.82,416l-.6-1.2Zm.9,30.33,5.56,2.76L712,455.45l-5.56-2.76Zm-15.72,5.36,6.44,3.72,2.23-3.14,10.39,7.37-7.37,10.39L699.8,467l-1.66,2.88-11-6.37ZM689.41,505,682,515.4,671.64,508,679,497.64Zm-27.75-18.7,5.11,6.32,1.33-8.8L662.68,473l11.4-5.69,5.69,11.4-5.15,2.57,6.59,1-1.91,12.6L667.07,493l2.59,3.21-6.19,5,3.6,3.29-8.59,9.41-9.41-8.59,6.14-6.72-1.6-2-1.14,2.3-5.56-2.76,2.76-5.56,4.12,2Zm-13.18-5,3.4,1.29-4.52,11.91L635.45,490l1.27-3.35-2-3-1.68-.25.28-1.84-.55-.82.75-.5,1.43-9.44,4.08.62.64-2.55,6,1.51-.5,2,2.35.36-.89,5.88Zm-7.32-21.55-3.16-5.3,5.32-3.19,3.19,5.32Zm-2.22-1.32L636.17,464l-5.56-2.76,2.76-5.56Zm-7,27.75-2.76,5.56L623.62,489l2.76-5.56Zm2,9.76,11,6.37-2.32,4,1.59,1-3.37,5.21-1.32-.86-.95,1.64-11-6.37Zm2.83,27.56,12.6,1.91L647.48,538l-12.6-1.91Zm9.06-5.42,4.57-4.2,4.2,4.57-4.57,4.2Zm11.11-44,2,5.88-5.88,2-2-5.88Zm-16.57-44.55,5.17-1.32,3.15,12.35-10,2.55-.07.11-.12-.07-2.15.55-.53-2.09-8.24-4.76,6.37-11Zm-22.45-9.84,4.19,5.92,1.74-5.16,5.88,2-2,5.88-4.9-1.65,2.43,3.43-10.4,7.35-3.2-4.46L609,434.29l-2.76-5.56,1.8-.9-.51-.72ZM616.4,466l2,5.88-5.88,2-2-5.88Zm-10.94-2.53-7.07-10.6,10.6-7.07,7.07,10.6Zm-4.74-62.81,6.37,11-11,6.37-6.37-11Zm-17.35,12.45,7.35,10.4-10.4,7.35-3.47-4.91-.27-.14.07-.15L573,420.43Zm-7.74,63.05,5.56,2.76-2.76,5.56-5.56-2.76ZM555,430.45l-2.76-5.56,5.56-2.76,2.76,5.56Zm7.79,32.35L557.2,460l2.76-5.56,5.56,2.76Zm.58-16.92-2-5.88,5.88-2,2,5.88Zm21.12,88.76-12.6-1.91,1.91-12.6,12.6,1.91Zm5.14-75.92L577,456.82l1.91-12.6,12.6,1.91Zm5.11,15,2.62.67,1.13-4.52,6,1.51-1.14,4.54,3.71.95-3.15,12.35-12.35-3.15Zm18.87,19,7.35,10.4-10.4,7.35-7.35-10.4Zm-1.1,151.06-6-1.51,1.51-6,6,1.51ZM624,579.4l-12.35-3.15,3.15-12.35,12.35,3.15Zm1.66-49.77-5.56-2.76,2.76-5.56,5.56,2.76ZM632.61,564l-2-5.88,5.88-2,2,5.88Zm13.18,55.82-5.56-2.76,2.76-5.56,5.56,2.76ZM649.3,582l-5.56-2.76,2.76-5.56,5.56,2.76Zm7-27.75-5.56-2.76,2.76-5.56,5.56,2.76Zm10.34,114.47-6-1.51,1.51-6,6,1.51Zm11.92-39.88-7.35-10.4L681.6,611l7.35,10.4Zm10.33-27.11-6-1.51,1.51-6,6,1.51Zm11.93-60.35,2.68,1.55,2.8-4.92,11.07,6.3-6.3,11.07-2.73-1.55-2.86,5-11-6.37Zm7.05,126.36-6-1.51,1.51-6,6,1.51Zm-3-16.65-3.19-5.32,5.32-3.19,3.19,5.32Zm17.34,54.14-9.41-8.59,8.59-9.41,9.41,8.59ZM736.57,649l-12.14-3.87L728.3,633l12.14,3.87Zm8.67-80.26-7.35-10.4.53-.37-3-3.21,4.57-4.19,3.49,3.8,4.77-3.37,7.35,10.4Zm5.94,31,12.73.44-.44,12.73-12.73-.44Zm6.91,66.88,6,1.51-1.51,6-6-1.51Zm13,73.79-9.41-8.59,8.59-9.41,9.41,8.59ZM791,655l-9.41-8.59,8.59-9.41,9.41,8.59Zm12-127.48,1.27.19,1.57-10.39,12.6,1.91-1.91,12.6-1.27-.19L813.69,542l-12.6-1.91Zm1,38.24,12.71-.83.83,12.71-12.71.83Zm3,44.83,1.51-6,6,1.51-1.51,6Zm12.36,47-6-1.51,1.51-6,6,1.51ZM826,467.9l2,5.88-5.88,2-2-5.88Zm-1.72,19.22-2.76,5.56L816,489.91l2.76-5.56Zm-7.67-20.64-1.91,12.6-12.6-1.91,1.91-12.6ZM803,419.63,814,426l-5.38,9.32,1,6.78L797.09,444l-1.91-12.6,2.17-.33-.71-.41Z" fill="#ffeeba"/><path d="M588.46,386.31l-.15-1-.59,1.19Z" fill="#ffeeba"/><rect width="6.2" height="6.2" transform="translate(561.551 366.004) rotate(-14.09)" fill="#ffeeba"/><rect width="6.2" height="6.2" transform="translate(666.579 245.696) rotate(-153.59)" fill="#ffeeba"/><rect width="6.2" height="6.2" transform="translate(752.752 361.886) rotate(-108.59)" fill="#ffeeba"/></g></svg>